<?xml version="1.0" standalone="no"?>
<!DOCTYPE svg PUBLIC "-//W3C//DTD SVG 20010904//EN"
 "http://www.w3.org/TR/2001/REC-SVG-20010904/DTD/svg10.dtd">
<svg version="1.0" xmlns="http://www.w3.org/2000/svg"
 width="684.000000pt" height="365.000000pt" viewBox="0 0 684.000000 365.000000"
 preserveAspectRatio="xMidYMid meet">

<g transform="translate(0.000000,365.000000) scale(0.100000,-0.100000)"
fill="#000000" stroke="none">
<path d="M851 2718 c-100 -658 -181 -1196 -246 -1638 -36 -245 -67 -455 -70
-468 l-5 -22 296 0 296 0 -7 63 c-3 34 -19 148 -35 252 -15 105 -31 226 -35
270 -7 94 -19 129 -50 149 -29 19 -39 63 -65 302 l-20 182 40 217 c22 119 46
241 53 272 l12 56 105 38 c58 21 112 38 120 38 11 1 15 -11 15 -49 0 -28 2
-50 5 -50 6 0 -15 -393 -25 -452 -9 -53 -82 -282 -102 -322 -12 -24 -13 -30
-1 -37 21 -13 28 -11 22 9 -5 13 -2 12 13 -5 14 -16 34 -23 85 -28 66 -7 67
-7 61 16 -3 13 -12 31 -20 40 -11 13 -10 65 7 340 11 178 25 341 31 363 13 47
0 68 -31 48 -25 -15 -30 -15 -30 0 0 6 3 8 6 5 4 -4 19 2 34 13 16 11 34 20
40 20 7 0 -8 18 -33 40 -39 34 -47 48 -52 88 -9 63 -24 112 -36 112 -6 0 -17
17 -26 37 -11 28 -12 42 -4 55 7 12 8 26 1 43 -24 63 4 126 71 160 99 52 238
-28 226 -130 -3 -27 1 -45 10 -53 14 -14 8 -82 -8 -92 -5 -3 -12 -39 -15 -80
-7 -72 -8 -75 -59 -127 -29 -30 -47 -52 -41 -50 6 3 32 -6 56 -19 25 -13 37
-24 27 -24 -10 0 -27 5 -37 10 -13 7 -21 7 -26 -2 -4 -7 -8 -179 -8 -382 l-1
-371 -32 -20 c-58 -36 -44 -50 50 -50 81 0 82 1 98 29 9 17 22 32 30 34 8 3 3
-7 -10 -22 -29 -31 -25 -38 16 -30 l30 6 -14 46 c-8 26 -30 110 -50 187 -39
155 -44 235 -28 510 4 77 8 159 8 183 0 23 1 42 3 42 1 0 18 -9 36 -19 18 -11
71 -28 117 -40 46 -11 94 -27 106 -35 18 -12 30 -52 73 -248 28 -128 54 -249
57 -269 7 -40 -31 -283 -68 -434 -17 -71 -26 -90 -39 -89 -32 3 -41 -86 -29
-279 10 -162 35 -394 48 -444 l5 -23 289 0 c243 0 289 2 289 14 0 8 -70 367
-155 798 -85 431 -172 880 -195 998 -58 304 -120 622 -126 643 -5 16 -38 17
-503 17 l-497 0 -53 -342z"/>
<path d="M2634 2302 c-53 -26 -74 -56 -74 -110 0 -75 21 -94 145 -133 74 -23
92 -44 68 -79 -13 -19 -22 -22 -60 -17 -24 2 -67 17 -95 31 -28 15 -52 25 -53
24 -1 -2 -10 -18 -20 -37 -17 -34 -17 -35 6 -52 57 -44 189 -63 256 -38 66 25
100 89 82 154 -12 44 -48 71 -118 92 -74 21 -103 41 -99 67 4 30 73 34 134 6
26 -11 48 -19 49 -18 9 10 35 69 35 77 0 19 -73 42 -145 47 -55 4 -79 1 -111
-14z"/>
<path d="M3079 2263 c-76 -174 -159 -372 -159 -377 0 -3 24 -6 53 -6 51 0 52
1 69 40 l17 40 95 0 96 0 16 -40 c16 -40 16 -40 71 -40 48 0 54 2 49 18 -4 9
-44 106 -89 214 l-82 197 -58 1 -58 0 -20 -47z m115 -156 l25 -67 -64 0 c-36
0 -65 1 -65 3 0 2 11 30 24 63 12 32 26 68 30 79 9 25 14 17 50 -78z"/>
<path d="M3430 2162 c0 -136 2 -153 23 -193 66 -125 285 -122 346 4 18 38 21
62 21 190 l0 147 -55 0 -55 0 0 -144 c0 -138 -1 -146 -24 -172 -33 -39 -89
-39 -122 0 -23 26 -24 34 -24 172 l0 144 -55 0 -55 0 0 -148z"/>
<path d="M3908 2095 l-3 -215 53 0 52 0 0 85 0 86 93 -3 92 -3 0 -83 0 -82 53
0 52 0 0 215 0 215 -52 0 -53 0 3 -66 c2 -36 1 -77 -2 -90 -6 -24 -8 -25 -94
-22 l-87 3 -3 88 -3 87 -49 0 -49 0 -3 -215z"/>
<path d="M4531 2288 c-5 -13 -44 -104 -86 -203 -42 -99 -79 -186 -82 -192 -4
-10 10 -13 49 -13 55 0 55 0 71 40 l15 40 97 0 97 0 15 -40 16 -40 112 0 112
0 13 40 13 41 100 -3 100 -3 12 -35 c11 -34 13 -35 68 -38 32 -2 57 1 57 5 -1
4 -40 100 -88 213 l-88 205 -59 0 -59 0 -87 -203 c-48 -112 -89 -206 -92 -208
-4 -5 -86 182 -152 349 l-27 67 -59 0 c-52 0 -61 -3 -68 -22z m99 -168 c17
-40 28 -75 26 -77 -2 -2 -31 -3 -64 -1 l-60 3 31 78 c16 42 32 76 33 74 2 -2
17 -36 34 -77z m474 12 c14 -37 26 -73 26 -80 0 -8 -19 -12 -60 -12 -33 0 -60
1 -60 3 0 2 14 40 49 130 6 15 12 27 15 27 2 0 16 -30 30 -68z"/>
<path d="M5370 2095 l0 -215 50 0 50 0 0 60 0 60 48 0 48 0 29 -60 29 -60 63
0 63 0 -26 43 c-15 23 -36 54 -46 70 l-19 27 30 26 c52 44 65 141 26 201 -31
47 -87 63 -222 63 l-123 0 0 -215z m244 116 c21 -18 21 -79 -1 -103 -12 -14
-31 -18 -80 -18 l-63 0 0 63 c0 35 3 67 8 71 11 12 118 1 136 -13z"/>
<path d="M5815 2094 l0 -216 125 5 c133 5 175 16 222 60 54 50 74 126 56 211
-8 39 -20 60 -52 91 -54 53 -99 65 -237 65 l-114 0 0 -216z m217 126 c88 -25
116 -148 49 -219 -27 -29 -34 -31 -95 -31 l-66 0 0 123 c0 68 3 127 7 130 10
10 63 8 105 -3z"/>
<path d="M1693 1775 c0 -27 2 -38 4 -22 2 15 2 37 0 50 -2 12 -4 0 -4 -28z"/>
<path d="M1093 1735 c0 -33 2 -45 4 -27 2 18 2 45 0 60 -2 15 -4 0 -4 -33z"/>
<path d="M2638 1565 c-62 -35 -73 -118 -21 -169 34 -34 96 -39 135 -11 22 15
10 29 -12 14 -8 -5 -32 -9 -52 -9 -73 0 -106 95 -51 146 28 26 49 28 113 9 23
-7 24 -6 9 9 -23 24 -88 30 -121 11z"/>
<path d="M2854 1561 c-58 -36 -66 -117 -15 -164 33 -31 62 -38 106 -26 97 27
103 164 8 200 -37 14 -65 11 -99 -10z m117 -30 c46 -47 37 -106 -22 -136 -33
-17 -62 -13 -93 14 -61 53 -21 149 62 151 13 0 37 -13 53 -29z"/>
<path d="M3077 1574 c-4 -4 -7 -52 -7 -106 0 -79 3 -98 15 -98 11 0 15 18 17
83 l3 82 38 -73 c44 -84 48 -84 92 8 16 33 32 60 37 60 4 0 8 -39 8 -86 0 -54
4 -83 10 -79 6 3 10 52 10 111 0 131 -14 137 -67 29 -21 -41 -41 -74 -46 -72
-5 1 -25 34 -45 72 -36 67 -51 83 -65 69z"/>
<path d="M1720 1387 c0 -3 12 -12 26 -22 15 -9 23 -12 20 -6 -7 11 -46 35 -46
28z"/>
<path d="M2530 1374 c0 -8 5 -12 10 -9 6 3 10 10 10 16 0 5 -4 9 -10 9 -5 0
-10 -7 -10 -16z"/>
<path d="M1010 1365 c-11 -13 -10 -14 4 -9 9 3 16 10 16 15 0 13 -6 11 -20 -6z"/>
<path d="M1396 1008 c-7 -51 -36 -369 -36 -398 0 -18 7 -20 85 -20 62 0 85 3
85 13 0 40 -104 424 -120 440 -4 5 -10 -11 -14 -35z"/>
</g>
</svg>
